<svg width="39" height="40" viewBox="0 0 39 40" fill="none" xmlns="http://www.w3.org/2000/svg">
<path d="M21.3424 0.647461C23.5195 0.653267 24.6245 0.664878 25.5786 0.691972L25.954 0.705518C26.3875 0.721 26.8152 0.740353 27.3319 0.763576C29.3909 0.860338 30.7959 1.18546 32.0286 1.66347C33.3058 2.15502 34.3818 2.82075 35.4578 3.89481C36.4418 4.86223 37.2032 6.03246 37.689 7.32407C38.167 8.55682 38.4921 9.96181 38.5889 12.0229C38.6121 12.5376 38.6315 12.9653 38.647 13.4008L38.6586 13.7762C38.6876 14.7283 38.6992 15.8334 38.7031 18.0105L38.705 19.4542V21.9894C38.7098 23.401 38.6949 24.8125 38.6605 26.2237L38.6489 26.5991C38.6334 27.0346 38.6141 27.4623 38.5908 27.977C38.4941 30.0381 38.1651 31.4411 37.689 32.6758C37.2046 33.9681 36.443 35.1387 35.4578 36.1051C34.4901 37.0888 33.32 37.8502 32.0286 38.3364C30.7959 38.8144 29.3909 39.1396 27.3319 39.2363C26.8727 39.2579 26.4134 39.2773 25.954 39.2944L25.5786 39.306C24.6245 39.3331 23.5195 39.3466 21.3424 39.3505L19.8988 39.3524H17.3656C15.9534 39.3573 14.5413 39.3425 13.1295 39.3079L12.7541 39.2963C12.2947 39.2789 11.8354 39.2589 11.3762 39.2363C9.31715 39.1396 7.91219 38.8144 6.67754 38.3364C5.38612 37.8514 4.21639 37.0898 3.25031 36.1051C2.26538 35.138 1.50326 33.9677 1.01709 32.6758C0.539101 31.4431 0.213988 30.0381 0.117228 27.977C0.0956678 27.5178 0.0763157 27.0585 0.0591724 26.5991L0.0494967 26.2237C0.013835 24.8126 -0.00229337 23.401 0.00111661 21.9894V18.0105C-0.00428445 16.5989 0.00990849 15.1874 0.043691 13.7762L0.0572374 13.4008C0.0727189 12.9653 0.0920708 12.5376 0.115293 12.0229C0.212053 9.96181 0.537165 8.55876 1.01516 7.32407C1.50111 6.03114 2.26475 4.86054 3.25224 3.89481C4.21808 2.91068 5.38704 2.14919 6.67754 1.66347C7.91219 1.18546 9.31521 0.860338 11.3762 0.763576C11.891 0.740353 12.3206 0.721 12.7541 0.705518L13.1295 0.693907C14.5406 0.659523 15.9521 0.644684 17.3637 0.649396L21.3424 0.647461ZM19.3531 10.3237C16.7868 10.3237 14.3257 11.3432 12.5111 13.1578C10.6965 14.9725 9.67709 17.4337 9.67709 20C9.67709 22.5663 10.6965 25.0274 12.5111 26.8421C14.3257 28.6567 16.7868 29.6762 19.3531 29.6762C21.9193 29.6762 24.3804 28.6567 26.195 26.8421C28.0096 25.0274 29.029 22.5663 29.029 20C29.029 17.4337 28.0096 14.9725 26.195 13.1578C24.3804 11.3432 21.9193 10.3237 19.3531 10.3237ZM19.3531 14.1942C20.1155 14.1941 20.8704 14.3441 21.5748 14.6358C22.2793 14.9274 22.9193 15.355 23.4585 15.894C23.9977 16.433 24.4255 17.073 24.7173 17.7773C25.0092 18.4816 25.1595 19.2366 25.1596 19.999C25.1597 20.7614 25.0097 21.5164 24.7181 22.2208C24.4264 22.9253 23.9989 23.5653 23.4599 24.1045C22.9209 24.6438 22.2809 25.0715 21.5766 25.3634C20.8723 25.6553 20.1174 25.8056 19.355 25.8057C17.8153 25.8057 16.3386 25.194 15.2498 24.1052C14.1611 23.0164 13.5494 21.5397 13.5494 20C13.5494 18.4602 14.1611 16.9835 15.2498 15.8947C16.3386 14.8059 17.8153 14.1942 19.355 14.1942M29.5148 7.42083C28.8732 7.42083 28.2579 7.6757 27.8043 8.12936C27.3506 8.58302 27.0958 9.19832 27.0958 9.83989C27.0958 10.4815 27.3506 11.0968 27.8043 11.5504C28.2579 12.0041 28.8732 12.259 29.5148 12.259C30.1563 12.259 30.7716 12.0041 31.2253 11.5504C31.6789 11.0968 31.9338 10.4815 31.9338 9.83989C31.9338 9.19832 31.6789 8.58302 31.2253 8.12936C30.7716 7.6757 30.1563 7.42083 29.5148 7.42083Z" fill="#F9F5FF"/>
</svg>
