<svg width="39" height="40" viewBox="0 0 39 40" fill="none" xmlns="http://www.w3.org/2000/svg">
<path d="M34.5229 0.647461C35.6635 0.647461 36.7574 1.10056 37.5639 1.90709C38.3705 2.71362 38.8236 3.80751 38.8236 4.94811V35.0527C38.8236 36.1933 38.3705 37.2872 37.5639 38.0937C36.7574 38.9002 35.6635 39.3533 34.5229 39.3533H4.41833C3.27772 39.3533 2.18384 38.9002 1.37731 38.0937C0.570779 37.2872 0.117676 36.1933 0.117676 35.0527V4.94811C0.117676 3.80751 0.570779 2.71362 1.37731 1.90709C2.18384 1.10056 3.27772 0.647461 4.41833 0.647461H34.5229ZM33.4477 33.9775V22.5808C33.4477 20.7216 32.7092 18.9386 31.3945 17.6239C30.0799 16.3093 28.2969 15.5707 26.4377 15.5707C24.6099 15.5707 22.4811 16.6889 21.4489 18.3662V15.9793H15.4495V33.9775H21.4489V23.3764C21.4489 21.7207 22.7821 20.366 24.4379 20.366C25.2363 20.366 26.002 20.6831 26.5666 21.2477C27.1312 21.8123 27.4483 22.578 27.4483 23.3764V33.9775H33.4477ZM8.46094 12.6033C9.41905 12.6033 10.3379 12.2227 11.0154 11.5452C11.6929 10.8677 12.0735 9.94884 12.0735 8.99073C12.0735 6.99092 10.4607 5.35668 8.46094 5.35668C7.49713 5.35668 6.5728 5.73955 5.89128 6.42107C5.20976 7.10258 4.82689 8.02692 4.82689 8.99073C4.82689 10.9905 6.46114 12.6033 8.46094 12.6033ZM11.4499 33.9775V15.9793H5.49349V33.9775H11.4499Z" fill="#F9F5FF"/>
</svg>
