<svg width="39" height="40" viewBox="0 0 39 40" fill="none" xmlns="http://www.w3.org/2000/svg">
<path d="M19.5292 0.647461C14.3965 0.647461 9.474 2.68643 5.84461 6.31581C2.21523 9.94519 0.17627 14.8677 0.17627 20.0004C0.17627 25.1331 2.21523 30.0556 5.84461 33.685C9.474 37.3144 14.3965 39.3533 19.5292 39.3533C24.6619 39.3533 29.5844 37.3144 33.2138 33.685C36.8432 30.0556 38.8821 25.1331 38.8821 20.0004C38.8821 14.8677 36.8432 9.94519 33.2138 6.31581C29.5844 2.68643 24.6619 0.647461 19.5292 0.647461ZM2.56313 21.4626H7.96045C8.04646 23.4194 8.31956 25.3633 8.77758 27.2685H4.13287C3.26673 25.4426 2.73507 23.4762 2.56313 21.4626ZM20.9914 9.85086V3.20635C23.0637 3.99385 24.7664 5.52789 25.7652 7.507C26.206 8.25317 26.5952 9.02943 26.9263 9.82936L20.9914 9.85086ZM27.9155 12.7538C28.4144 14.6525 28.7111 16.5986 28.7971 18.5597H20.9914V12.7538H27.9155ZM18.067 3.20635V9.85086H12.1321C12.4638 9.05028 12.8518 8.27422 13.2933 7.52851C14.2877 5.54129 15.991 3.99909 18.067 3.20635ZM18.067 12.7538V18.5597H10.2828C10.3688 16.5986 10.6656 14.6525 11.1644 12.7538H18.067ZM7.96045 18.5382H2.56313C2.73507 16.5246 3.26673 14.5582 4.13287 12.7323H8.77758C8.31868 14.6367 8.04503 16.5811 7.96045 18.5382ZM10.2828 21.4626H18.067V27.2685H11.1644C10.6656 25.3699 10.3701 23.4237 10.2828 21.4626ZM18.0885 30.0639V36.7084C16.0163 35.9209 14.3135 34.3869 13.3148 32.4078C12.8733 31.6621 12.4853 30.886 12.1536 30.0854L18.0885 30.0639ZM20.9914 36.7084V30.1714H26.9263C26.5946 30.972 26.2066 31.7481 25.7652 32.4938C24.7664 34.4729 23.0637 36.007 20.9914 36.7945V36.7084ZM20.9914 27.161V21.3551H28.7756C28.6883 23.3162 28.3928 25.2624 27.894 27.161H20.9914ZM31.1195 21.3551H36.5168C36.3449 23.3687 35.8132 25.3351 34.9471 27.161H30.2808C30.7324 25.2902 31.0055 23.3829 31.098 21.4626L31.1195 21.3551ZM31.1195 18.4522C31.021 16.5304 30.7402 14.6224 30.2808 12.7538H34.9255C35.7921 14.5816 36.3233 16.547 36.4953 18.5597L31.1195 18.4522ZM33.2698 9.85086H29.4207C28.7243 7.89471 27.7148 6.06462 26.4318 4.43204C29.1076 5.63316 31.4319 7.49851 33.1838 9.85086H33.2698ZM12.6267 4.43204C11.3436 6.06462 10.3342 7.89471 9.63771 9.85086H5.87464C7.62655 7.49851 9.95083 5.63316 12.6267 4.43204ZM5.85313 30.236H9.63771C10.3342 32.1921 11.3436 34.0222 12.6267 35.6548C9.94343 34.4356 7.61844 32.5474 5.87464 30.1714L5.85313 30.236ZM26.4103 35.6548C27.6933 34.0222 28.7028 32.1921 29.3992 30.236H33.1838C31.4212 32.5568 29.0978 34.3918 26.4318 35.5688L26.4103 35.6548Z" fill="#F9F5FF"/>
</svg>
