<svg width="39" height="40" viewBox="0 0 39 40" fill="none" xmlns="http://www.w3.org/2000/svg">
<path fill-rule="evenodd" clip-rule="evenodd" d="M4.85498 1.88158C5.27825 1.45895 5.78651 1.1311 6.34607 0.919749C6.90563 0.708401 7.50372 0.618386 8.1007 0.655669C8.69768 0.692952 9.27993 0.856681 9.80884 1.13601C10.3378 1.41533 10.8013 1.80388 11.1687 2.27589L15.5109 7.8542C16.3067 8.87745 16.5873 10.2103 16.2729 11.4682L14.9496 16.7659C14.8817 17.0404 14.8856 17.3277 14.9611 17.6001C15.0365 17.8726 15.1808 18.121 15.3802 18.3214L21.3238 24.265C21.5245 24.4648 21.7733 24.6094 22.0462 24.6848C22.3191 24.7602 22.6069 24.7639 22.8817 24.6956L28.177 23.3724C28.7978 23.218 29.4455 23.2064 30.0715 23.3384C30.6974 23.4704 31.2853 23.7425 31.791 24.1343L37.3693 28.4741C39.3747 30.0344 39.5586 32.9977 37.7636 34.7902L35.2623 37.2915C33.4722 39.0816 30.7968 39.8678 28.3028 38.9897C21.9181 36.7462 16.1218 33.0915 11.3453 28.2975C6.55163 23.5217 2.89689 17.7262 0.653103 11.3425C-0.22259 8.85084 0.563598 6.17296 2.35369 4.38287L4.85498 1.88158Z" fill="#F9F5FF"/>
</svg>
